<?xml version="1.0" encoding="utf-8"?>
<!-- Generator: Adobe Illustrator 16.2.0, SVG Export Plug-In . SVG Version: 6.00 Build 0)  -->
<!DOCTYPE svg PUBLIC "-//W3C//DTD SVG 1.1//EN" "http://www.w3.org/Graphics/SVG/1.1/DTD/svg11.dtd">
<svg version="1.1"
	 id="svg2" xmlns:dc="http://purl.org/dc/elements/1.1/" xmlns:cc="http://creativecommons.org/ns#" xmlns:rdf="http://www.w3.org/1999/02/22-rdf-syntax-ns#" xmlns:svg="http://www.w3.org/2000/svg" xmlns:sodipodi="http://sodipodi.sourceforge.net/DTD/sodipodi-0.dtd" xmlns:inkscape="http://www.inkscape.org/namespaces/inkscape" sodipodi:docname="pointer.svg" inkscape:version="0.92.2pre0 (973e216, 2017-07-25)"
	 xmlns="http://www.w3.org/2000/svg" xmlns:xlink="http://www.w3.org/1999/xlink" x="0px" y="0px" width="32px" height="32px"
	 viewBox="0 0 32 32" enable-background="new 0 0 32 32" xml:space="preserve">
<filter  height="1.2680809" y="-0.13404046" width="1.2793511" x="-0.13967554" style="color-interpolation-filters:sRGB" id="filter7818" inkscape:collect="always">
	<feGaussianBlur  stdDeviation="1.1885652" id="feGaussianBlur7820" inkscape:collect="always"></feGaussianBlur>
</filter>
<sodipodi:namedview  inkscape:cy="7.9627635" inkscape:cx="4.8586695" inkscape:zoom="21.213203" showgrid="true" guidetolerance="10" gridtolerance="10" objecttolerance="10" borderopacity="1" bordercolor="#666666" pagecolor="#ffffff" id="namedview9" inkscape:current-layer="svg2" inkscape:window-maximized="1" inkscape:window-y="40" inkscape:window-x="0" inkscape:window-height="700" inkscape:window-width="1366" inkscape:pageshadow="2" inkscape:pageopacity="0">
	<inkscape:grid  type="xygrid" id="grid38"></inkscape:grid>
</sodipodi:namedview>
<g id="g36" transform="translate(16.313352,-4.6814446)">
	<g id="path7448" inkscape:connector-curvature="0" opacity="0.2" filter="url(#filter7818)" enable-background="new    ">
		<path d="M-1.619,10.041c-0.708,0-1.402,0.349-1.844,0.938s-0.656,1.396-0.656,2.313v7c-0.553-0.409-1.203-1.033-1.688-1.25
			c-0.979-0.438-1.873-0.524-2.594-0.313c-1.442,0.423-1.906,1.813-1.906,1.813l-0.219,0.719l0.625,0.438
			c1.376,0.929,2.77,3.207,4.094,5.313c0.662,1.053,1.314,2.039,2.063,2.844s1.672,1.477,2.813,1.469l8.813-0.031l0.906-0.031
			l0.094-0.875l1-10c0.148-1.434-0.722-2.656-1.844-3.031c-0.542-0.181-1.164-0.088-1.719,0.156
			c-0.365-0.559-0.842-0.981-1.438-1.125c-0.508-0.122-1.048-0.014-1.531,0.188c-0.348-0.496-0.803-0.857-1.344-1.031
			c-0.35-0.112-0.748-0.025-1.125,0.031v-2.281c0-0.917-0.215-1.724-0.656-2.313C-0.216,10.39-0.91,10.041-1.619,10.041
			L-1.619,10.041z"/>
	</g>
	<path id="path4236-1-58-5-5" inkscape:connector-curvature="0" fill="#FFFFFF" d="M-1.619,9.041c-0.708,0-1.402,0.349-1.844,0.938
		s-0.656,1.396-0.656,2.313v7c-0.553-0.409-1.203-1.033-1.688-1.25c-0.979-0.438-1.873-0.524-2.594-0.313
		c-1.442,0.423-1.906,1.813-1.906,1.813l-0.219,0.719l0.625,0.438c1.376,0.929,2.77,3.207,4.094,5.313
		c0.662,1.053,1.314,2.039,2.063,2.844c0.748,0.804,1.672,1.477,2.813,1.469l8.813-0.031l0.906-0.031l0.094-0.875l1-10
		c0.148-1.434-0.722-2.656-1.844-3.031c-0.542-0.181-1.164-0.088-1.719,0.156c-0.365-0.559-0.842-0.981-1.438-1.125
		c-0.508-0.122-1.048-0.014-1.531,0.188c-0.348-0.496-0.803-0.857-1.344-1.031c-0.35-0.112-0.748-0.025-1.125,0.031v-2.281
		c0-0.917-0.215-1.724-0.656-2.313C-0.216,9.39-0.91,9.041-1.619,9.041L-1.619,9.041z"/>
	
		<linearGradient id="path4236-1-58-5_1_" gradientUnits="userSpaceOnUse" x1="25.5001" y1="-776.7424" x2="25.6197" y2="-761.9796" gradientTransform="matrix(1 0 0 -1 -25.8052 -747.4028)">
		<stop  offset="0" style="stop-color:#000001"/>
		<stop  offset="1" style="stop-color:#646464"/>
	</linearGradient>
	
		<path id="path4236-1-58-5" inkscape:connector-curvature="0" sodipodi:nodetypes="scccccsscss" fill="url(#path4236-1-58-5_1_)" d="
		M-0.952,29.335l8.834-0.057l1-10c0.209-2.027-2.303-2.871-3-1c0.009-2.248-2.304-2.529-3-1c0.087-1.857-2.273-2.576-3-1v-4
		c0-3-3-3-3,0v9c-5-5-6.226-1.407-6.226-1.407C-5.947,22.165-3.869,29.353-0.952,29.335z"/>
</g>
</svg>
