<?xml version="1.0" encoding="utf-8"?>
<!-- Generator: Adobe Illustrator 16.2.0, SVG Export Plug-In . SVG Version: 6.00 Build 0)  -->
<!DOCTYPE svg PUBLIC "-//W3C//DTD SVG 1.1//EN" "http://www.w3.org/Graphics/SVG/1.1/DTD/svg11.dtd">
<svg version="1.1"
	 id="svg2" xmlns:dc="http://purl.org/dc/elements/1.1/" xmlns:cc="http://creativecommons.org/ns#" xmlns:rdf="http://www.w3.org/1999/02/22-rdf-syntax-ns#" xmlns:svg="http://www.w3.org/2000/svg" xmlns:sodipodi="http://sodipodi.sourceforge.net/DTD/sodipodi-0.dtd" xmlns:inkscape="http://www.inkscape.org/namespaces/inkscape" sodipodi:docname="up-arrow.svg" inkscape:version="0.92.2pre0 (973e216, 2017-07-25)"
	 xmlns="http://www.w3.org/2000/svg" xmlns:xlink="http://www.w3.org/1999/xlink" x="0px" y="0px" width="32px" height="32px"
	 viewBox="0 0 32 32" enable-background="new 0 0 32 32" xml:space="preserve">
<filter  height="1.3021675" y="-0.15108375" width="1.7574571" x="-0.37872854" style="color-interpolation-filters:sRGB" id="filter8130" inkscape:collect="always">
	<feGaussianBlur  stdDeviation="1.25931" id="feGaussianBlur8132" inkscape:collect="always"></feGaussianBlur>
</filter>
<sodipodi:namedview  inkscape:cy="16.738328" inkscape:cx="8.4666918" inkscape:zoom="20.85965" showgrid="true" guidetolerance="10" gridtolerance="10" objecttolerance="10" borderopacity="1" bordercolor="#666666" pagecolor="#ffffff" id="namedview9" inkscape:current-layer="svg2" inkscape:window-maximized="1" inkscape:window-y="40" inkscape:window-x="0" inkscape:window-height="700" inkscape:window-width="1366" inkscape:pageshadow="2" inkscape:pageopacity="0">
	<inkscape:grid  type="xygrid" id="grid4141"></inkscape:grid>
</sodipodi:namedview>
<g id="g41" transform="translate(-5.6249956,-5.6024811)">
	<g id="path7420" inkscape:connector-curvature="0" opacity="0.3" filter="url(#filter8130)" enable-background="new    ">
		<path d="M18.438,10.602c-0.311,0.06-0.586,0.276-0.719,0.563l-3,6c-0.24,0.51,0.058,1.199,0.594,1.375l1.813,0.625v10.438
			c0,0.523,0.477,1,1,1h1c0.523,0,1-0.477,1-1V19.165l1.813-0.625c0.536-0.176,0.834-0.865,0.594-1.375l-3-6
			c-0.176-0.367-0.595-0.603-1-0.563C18.501,10.601,18.47,10.601,18.438,10.602L18.438,10.602z"/>
	</g>
	<path id="path4801-2" inkscape:connector-curvature="0" fill="#FFFFFF" d="M18.438,9.602c-0.316,0.061-0.584,0.27-0.719,0.563l-3,6
		c-0.234,0.5-0.02,1.096,0.48,1.33c0.037,0.017,0.074,0.031,0.113,0.045l1.813,0.625v10.438c0,0.552,0.447,1,1,1h1
		c0.553,0,1-0.448,1-1V18.165l1.813-0.625c0.525-0.173,0.811-0.738,0.639-1.263c-0.013-0.038-0.027-0.076-0.045-0.112l-3-6
		c-0.182-0.379-0.582-0.604-1-0.563C18.501,9.601,18.47,9.601,18.438,9.602L18.438,9.602z"/>
	
		<linearGradient id="path4801_1_" gradientUnits="userSpaceOnUse" x1="142.793" y1="-876.7491" x2="143.293" y2="-858.7492" gradientTransform="matrix(1 0 0 -1 -124.5 -848.1426)">
		<stop  offset="0" style="stop-color:#000001"/>
		<stop  offset="1" style="stop-color:#646464"/>
	</linearGradient>
	<path id="path4801" inkscape:connector-curvature="0" fill="url(#path4801_1_)" d="M18.626,10.602l-3,6l2.5,0.844v11.156h1V17.446
		l2.5-0.844L18.626,10.602z"/>
</g>
</svg>
